<svg width="93" height="50" viewBox="0 0 93 50" fill="none" xmlns="http://www.w3.org/2000/svg">
<g filter="url(#filter0_dd_222_6329)">
<path d="M34.5802 1.75499L83.0929 2.03711C85.0934 2.04874 85.8394 4.66552 84.1457 5.73028L52.0292 25.9207C51.2932 26.3834 50.9404 27.2685 51.1563 28.1106L55.2026 43.8927C55.5257 45.1529 54.5787 46.3812 53.2778 46.3894L3.92676 46.6978C1.91581 46.7104 1.14601 44.0807 2.84627 43.0069L35.801 22.1934C36.5347 21.73 36.8859 20.8464 36.6703 20.0057L32.6312 4.25167C32.3056 2.98183 33.2693 1.74737 34.5802 1.75499Z" fill="#F9F9F9"/>
<path d="M34.5802 1.75499L83.0929 2.03711C85.0934 2.04874 85.8394 4.66552 84.1457 5.73028L52.0292 25.9207C51.2932 26.3834 50.9404 27.2685 51.1563 28.1106L55.2026 43.8927C55.5257 45.1529 54.5787 46.3812 53.2778 46.3894L3.92676 46.6978C1.91581 46.7104 1.14601 44.0807 2.84627 43.0069L35.801 22.1934C36.5347 21.73 36.8859 20.8464 36.6703 20.0057L32.6312 4.25167C32.3056 2.98183 33.2693 1.74737 34.5802 1.75499Z" stroke="#F9F9F9"/>
</g>
<defs>
<filter id="filter0_dd_222_6329" x="0.910645" y="0.754944" width="91.1741" height="48.9429" filterUnits="userSpaceOnUse" color-interpolation-filters="sRGB">
<feFlood flood-opacity="0" result="BackgroundImageFix"/>
<feColorMatrix in="SourceAlpha" type="matrix" values="0 0 0 0 0 0 0 0 0 0 0 0 0 0 0 0 0 0 127 0" result="hardAlpha"/>
<feOffset dx="7" dy="3"/>
<feComposite in2="hardAlpha" operator="out"/>
<feColorMatrix type="matrix" values="0 0 0 0 0.0784314 0 0 0 0 0.0784314 0 0 0 0 0.0784314 0 0 0 1 0"/>
<feBlend mode="normal" in2="BackgroundImageFix" result="effect1_dropShadow_222_6329"/>
<feColorMatrix in="SourceAlpha" type="matrix" values="0 0 0 0 0 0 0 0 0 0 0 0 0 0 0 0 0 0 127 0" result="hardAlpha"/>
<feOffset dx="-1" dy="-1"/>
<feComposite in2="hardAlpha" operator="out"/>
<feColorMatrix type="matrix" values="0 0 0 0 0.690196 0 0 0 0 0.670588 0 0 0 0 0.929412 0 0 0 1 0"/>
<feBlend mode="normal" in2="effect1_dropShadow_222_6329" result="effect2_dropShadow_222_6329"/>
<feBlend mode="normal" in="SourceGraphic" in2="effect2_dropShadow_222_6329" result="shape"/>
</filter>
</defs>
</svg>
